# xmcd
#
# Track frame offsets:
#	150
#	4039
#	20378
#	36729
#	59321
#	78224
#	93411
#	110899
#	128394
#	146780
#	164520
#	182752
#	202128
#	221268
#	239724
#	259575
#	279017
#	296970
#	319012
#
# Disc length: 4415 seconds
# Revision: 2
# Processed by: cddbd v1.5.2PL0 Copyright (c) Steve Scherf et al.
# Submitted via: dBpowerAMP V12.0
#
DISCID=1a113d13
DTITLE=Various Artist - Church On The Moon
DYEAR=2011
DGENRE=Gospel
TTITLE0=DietrickVaughnHaddon,Detroit,MI - Intro. (Lift Off)
TTITLE1=DietrickVaughnHaddon,Detroit,MI - Show Stopper
TTITLE2=DietrickVaughnHaddon,Detroit,MI - Power
TTITLE3=DietrickVaughnHaddon,Detroit,MI,featuring J Moss, Canton Jones, Tye Tribbett, T. Haddy - Reppin' The Kingdom
TTITLE4=DietrickVaughnHaddon,Detroit,MI - Gravity
TTITLE5=DietrickVaughnHaddon,Detroit,MI - Hing
TTITLE6=DietrickVaughnHaddon,Detroit,MI - Touch Me
TTITLE7=DietrickVaughnHaddon,Detroit,MI - The Greatest
TTITLE8=DietrickVaughnHaddon,Detroit,MI - Fighting Temptations
TTITLE9=DietrickVaughnHaddon,Detroit,MI - One More Chance
TTITLE10=DietrickVaughnHaddon,Detroit,MI,featuring Milliyon - Bended Knees
TTITLE11=DietrickVaughnHaddon,Detroit,MI - Forgiven
TTITLE12=DietrickVaughnHaddon,Detroit,MI - Mighty God
TTITLE13=DietrickVaughnHaddon,Detroit,MI - Well Done
TTITLE14=DietrickVaughnHaddon,Detroit,MI - You Are My Strength
TTITLE15=DietrickVaughnHaddon,Detroit,MI - Baby, You're A Star
TTITLE16=DietrickVaughnHaddon,Detroit,MI,featuring Damita - Save Somebody
TTITLE17=DietrickVaughnHaddon,Detroit,MI - Church On The Moon
TTITLE18=DietrickVaughnHaddon,Detroit,MI - Jesus Is Coming
EXTD=
EXTT0=
EXTT1=
EXTT2=
EXTT3=
EXTT4=
EXTT5=
EXTT6=
EXTT7=
EXTT8=
EXTT9=
EXTT10=
EXTT11=
EXTT12=
EXTT13=
EXTT14=
EXTT15=
EXTT16=
EXTT17=
EXTT18=
PLAYORDER=
